<?xml version="1.0" standalone="no"?>
<!DOCTYPE svg PUBLIC "-//W3C//DTD SVG 20010904//EN"
 "http://www.w3.org/TR/2001/REC-SVG-20010904/DTD/svg10.dtd">
<svg version="1.0" xmlns="http://www.w3.org/2000/svg"
 width="600.000000pt" height="375.000000pt" viewBox="0 0 600.000000 375.000000"
 preserveAspectRatio="xMidYMid meet">
<g transform="translate(0.000000,375.000000) scale(0.100000,-0.100000)"
fill="#000000" stroke="none">
<path d="M2820 2546 c0 -2 7 -7 16 -10 8 -3 12 -2 9 4 -6 10 -25 14 -25 6z"/>
<path d="M2810 2495 c0 -4 22 -44 49 -89 26 -44 59 -101 72 -126 13 -25 29
-48 34 -52 8 -6 25 -235 18 -242 -2 -1 -23 2 -48 8 l-45 10 -96 244 -97 243
-59 -3 -60 -3 -38 -95 c-21 -52 -64 -162 -96 -245 -33 -82 -60 -153 -62 -157
-2 -5 28 -8 66 -8 l69 0 12 43 12 42 99 -3 99 -3 6 -30 c4 -16 11 -31 16 -34
17 -11 9 -23 -18 -29 -72 -19 -167 -114 -202 -203 -22 -57 -30 -164 -17 -223
37 -159 196 -280 366 -280 73 0 169 29 218 66 111 85 157 184 150 324 -4 91
-47 189 -105 240 -44 39 -34 46 -163 -130 -51 -69 -95 -126 -98 -127 -4 -1
-31 27 -61 63 -29 35 -57 64 -61 64 -16 0 -69 -83 -62 -96 23 -41 185 -223
194 -218 11 7 198 257 216 289 10 19 11 18 22 -10 39 -100 12 -213 -66 -285
-77 -71 -162 -93 -256 -65 -86 25 -133 66 -175 154 -22 46 -25 62 -19 113 16
156 132 258 279 245 34 -4 76 -9 92 -12 26 -5 33 -2 53 31 25 38 22 48 -18 59
-17 4 -21 3 -11 -3 15 -11 6 -36 -10 -27 -5 3 -6 -1 -3 -9 3 -9 10 -13 15 -10
5 3 6 -1 4 -9 -4 -9 -16 -12 -35 -9 -17 2 -28 8 -25 12 3 4 -18 6 -45 5 -31
-3 -50 0 -50 7 0 7 -5 6 -15 -2 -8 -6 -19 -9 -26 -5 -6 4 -14 4 -18 -1 -3 -5
-21 -17 -39 -28 -26 -14 -37 -15 -45 -7 -9 9 -8 11 4 6 10 -4 19 -2 23 3 3 5
-5 8 -17 7 -14 -1 -21 -8 -20 -20 1 -19 -62 -86 -72 -76 -4 3 -5 1 -4 -4 2 -6
-5 -27 -14 -49 -9 -21 -17 -47 -17 -58 0 -10 -4 -17 -9 -14 -4 3 -6 -6 -3 -19
2 -14 -2 -33 -9 -42 -11 -13 -11 -17 -1 -20 6 -3 12 -10 12 -16 0 -7 7 -25 15
-40 8 -16 9 -25 3 -21 -7 4 2 -10 18 -32 16 -21 35 -43 43 -48 11 -7 11 -10 0
-18 -11 -8 -10 -9 3 -4 10 3 21 -1 25 -8 5 -8 31 -24 58 -37 40 -19 66 -24
125 -23 91 2 110 4 110 17 0 5 12 6 28 3 17 -4 22 -3 13 2 -17 12 1 24 26 16
14 -4 15 -4 4 4 -11 8 -9 11 8 17 13 4 20 9 17 12 -6 6 23 32 36 33 4 0 5 -8
2 -17 -5 -15 -4 -15 4 -4 7 10 7 21 1 33 -7 13 -6 18 3 16 7 -2 13 6 13 19 0
12 4 25 8 29 4 4 7 20 7 36 0 15 4 28 8 28 4 0 8 25 8 56 0 30 -3 47 -7 37 -4
-13 -8 -7 -14 22 -5 22 -8 42 -7 45 0 3 -10 7 -23 8 -16 1 -31 -9 -50 -33 -39
-53 -78 -86 -93 -80 -7 3 -10 0 -7 -6 4 -6 13 -8 21 -5 25 10 15 -12 -16 -34
-17 -12 -28 -26 -24 -31 3 -6 -4 -18 -15 -28 -12 -10 -21 -23 -21 -28 0 -6 -8
-17 -18 -26 -17 -16 -20 -15 -41 13 -12 17 -19 35 -16 40 3 5 0 7 -8 5 -7 -3
-22 4 -32 15 -19 20 -18 21 1 15 18 -6 18 -6 -1 6 -23 14 -55 45 -55 54 0 3 5
3 12 -1 7 -4 8 -3 4 4 -4 6 -14 8 -23 5 -13 -5 -15 -2 -10 11 5 11 3 15 -5 10
-8 -5 -9 -2 -5 10 4 10 7 20 7 23 0 3 7 0 15 -7 17 -14 21 0 4 17 -8 8 -8 13
0 17 15 10 33 -3 25 -16 -5 -7 -1 -9 9 -5 18 7 24 -8 7 -16 -6 -3 -5 -4 2 -3
18 4 60 -43 52 -56 -4 -7 -2 -8 4 -4 11 6 16 -6 13 -26 -2 -17 13 -6 53 37 24
25 46 42 50 38 4 -4 4 1 0 11 -5 12 -4 17 3 13 11 -7 53 24 53 38 0 5 -9 0
-20 -10 -11 -10 -23 -15 -27 -12 -3 4 -1 7 5 7 7 0 12 6 12 14 0 7 8 20 17 27
14 12 16 12 8 0 -5 -10 -4 -12 3 -7 7 4 12 17 12 29 0 15 10 26 31 36 16 7 28
16 25 19 -3 2 -14 -1 -23 -9 -16 -12 -15 -11 1 8 10 13 23 20 27 17 5 -3 6 1
3 9 -3 8 0 18 6 22 13 8 52 -24 44 -36 -3 -5 1 -9 9 -9 16 0 50 -67 41 -82 -4
-6 -3 -8 3 -5 15 9 34 -81 32 -151 -1 -34 -5 -62 -9 -62 -7 0 -20 -31 -24 -56
-2 -21 -41 -84 -51 -84 -5 0 -21 -14 -34 -31 -28 -34 -69 -59 -90 -51 -8 3
-11 0 -7 -7 4 -6 1 -12 -6 -13 -50 -6 -66 -8 -91 -14 -33 -8 -177 15 -177 28
0 5 -6 8 -12 6 -22 -4 -58 21 -52 37 4 10 1 14 -7 10 -8 -2 -21 1 -29 8 -22
18 -57 62 -43 54 6 -4 15 -2 19 4 4 7 3 9 -4 5 -13 -8 -42 20 -42 42 0 15 -2
15 -10 2 -8 -12 -10 -11 -11 8 -1 12 -2 28 -3 35 -1 6 -5 15 -11 19 -6 5 -5
15 3 29 12 19 12 21 -3 16 -9 -4 -14 -3 -10 3 3 5 8 33 10 62 6 74 10 91 20
108 5 8 19 33 30 55 11 22 26 39 33 37 7 -1 17 9 22 22 8 22 52 56 57 45 1 -2
12 4 23 14 12 10 26 14 33 11 7 -4 9 -4 5 1 -4 4 5 19 20 33 15 15 20 23 10
19 -13 -4 -20 3 -29 31 -18 56 -32 62 -138 61 -69 -1 -96 2 -103 12 -7 10 -8
8 -3 -7 3 -11 -1 -37 -9 -56 -14 -32 -19 -36 -56 -36 -41 -1 -41 -1 -35 31 4
18 18 53 31 79 13 26 24 54 24 63 0 8 5 15 10 15 6 0 10 9 10 20 0 11 5 20 11
20 5 0 8 4 4 10 -3 5 -3 21 1 35 5 20 9 23 15 13 7 -10 9 -9 9 4 0 9 3 18 8
21 4 2 2 3 -4 1 -7 -1 -5 14 5 41 8 24 19 41 23 39 4 -3 8 7 9 23 0 25 1 26
10 8 7 -16 8 -13 4 13 l-4 32 44 0 c40 0 46 -3 61 -31 19 -37 29 -103 14 -94
-6 4 -7 -1 -3 -11 4 -11 8 -13 11 -6 7 23 19 12 15 -15 -2 -21 -1 -24 5 -9 7
15 10 10 21 -25 7 -24 17 -52 22 -62 5 -10 7 -22 4 -27 -4 -6 -1 -10 5 -10 7
0 9 -9 5 -22 -5 -19 -4 -20 5 -8 10 12 11 11 7 -8 -3 -12 -1 -20 4 -16 8 5 12
-9 12 -48 0 -10 4 -15 8 -12 5 3 9 -2 9 -11 0 -9 5 -13 10 -10 6 3 10 -1 10
-10 0 -9 -9 -19 -20 -22 -11 -3 -17 -9 -15 -14 3 -4 12 -6 19 -3 8 3 28 -2 45
-10 30 -16 92 -22 104 -9 4 3 34 5 67 4 l60 -2 0 105 c0 96 2 110 25 146 14
22 25 42 25 44 0 2 25 48 55 100 31 53 58 102 60 109 4 9 -13 11 -70 9 l-75
-4 -35 -76 c-46 -98 -53 -124 -31 -116 9 3 16 15 16 26 0 12 4 17 12 12 8 -5
9 -2 5 9 -3 10 -2 17 3 17 5 0 7 7 3 15 -3 10 -1 15 8 13 11 -3 21 18 35 70 2
7 21 12 49 12 29 0 44 -4 40 -10 -4 -6 -9 -8 -13 -6 -4 2 -8 -7 -9 -21 -2 -34
-24 -74 -36 -66 -6 4 -8 0 -4 -10 7 -19 -9 -33 -17 -15 -3 7 -3 2 0 -11 4 -16
3 -21 -5 -17 -7 5 -11 -1 -11 -15 0 -12 -8 -28 -17 -36 -11 -8 -12 -11 -3 -7
13 7 13 6 0 -12 -8 -10 -19 -22 -25 -26 -5 -4 -10 -53 -11 -110 l-2 -103 -38
-6 c-22 -4 -41 -5 -43 -4 -1 2 -3 47 -2 99 1 93 -4 116 -37 158 -8 9 -11 22
-7 28 9 14 -14 42 -28 33 -6 -4 -8 2 -4 16 3 13 3 20 0 17 -12 -11 -63 78 -57
99 4 16 3 17 -5 5 -9 -13 -11 -13 -11 2 0 19 14 31 24 21 3 -4 21 -7 39 -7 26
-1 32 -5 31 -23 0 -12 4 -21 10 -20 6 1 10 -4 8 -11 -1 -8 2 -11 9 -6 9 5 10
2 6 -9 -3 -9 -2 -19 3 -22 6 -4 10 -15 10 -26 0 -10 5 -19 10 -19 6 0 10 -4
10 -8 0 -13 -34 -11 -43 2 -6 7 -7 6 -4 -4 2 -8 10 -15 18 -15 8 0 17 -4 21
-10 5 -6 8 -4 8 5 1 11 4 10 16 -5 16 -19 16 -19 9 5 -3 14 -23 62 -43 107
l-37 82 -62 1 c-34 0 -68 3 -77 6 -9 3 -16 3 -16 -1z m327 -77 c-3 -8 -6 -5
-6 6 -1 11 2 17 5 13 3 -3 4 -12 1 -19z m-177 -129 c0 -6 -4 -7 -10 -4 -5 3
-10 11 -10 16 0 6 5 7 10 4 6 -3 10 -11 10 -16z"/>
<path d="M2020 2251 c0 -132 -3 -246 -6 -255 -5 -14 4 -16 65 -16 l71 0 0 90
0 90 79 0 c64 0 84 4 111 23 58 39 75 71 75 142 0 71 -17 103 -75 143 -30 20
-44 22 -176 22 l-144 0 0 -239z m290 204 c7 -8 18 -15 24 -15 30 0 56 -56 60
-127 1 -32 -4 -44 -36 -75 -53 -52 -68 -58 -140 -58 -89 0 -91 -3 -89 -99 l2
-81 -45 0 -46 0 0 235 0 235 129 0 c102 0 131 -3 141 -15z m55 -235 c-3 -5
-12 -10 -18 -10 -7 0 -6 4 3 10 19 12 23 12 15 0z"/>
<path d="M2323 2414 c4 -4 -1 -17 -10 -28 l-18 -21 25 20 c14 11 26 20 28 21
2 1 -5 5 -15 8 -9 4 -14 4 -10 0z"/>
<path d="M2140 2395 c-17 -21 -16 -135 2 -146 24 -16 153 -5 142 12 -2 4 9 6
27 4 17 -2 28 -1 24 3 -4 4 -12 7 -18 7 -7 0 -13 15 -15 34 -3 25 0 31 10 25
7 -5 -2 11 -20 34 -32 40 -36 42 -87 42 -35 0 -57 -5 -65 -15z m129 -30 c17
-16 18 -60 2 -79 -7 -8 -35 -16 -66 -18 l-54 -3 -3 58 c-2 32 -2 60 0 61 8 8
109 -8 121 -19z"/>
<path d="M2111 2324 c0 -11 3 -14 6 -6 3 7 2 16 -1 19 -3 4 -6 -2 -5 -13z"/>
<path d="M3085 2459 c-4 -6 -5 -12 -2 -15 2 -3 7 2 10 11 7 17 1 20 -8 4z"/>
<path d="M3160 2395 c0 -8 29 -12 39 -5 9 5 4 8 -13 8 -14 0 -26 -2 -26 -3z"/>
<path d="M2620 2359 c1 -8 -1 -25 -6 -38 -7 -23 -8 -24 -15 -5 -6 16 -8 14
-10 -11 -1 -16 -2 -36 -2 -42 1 -7 -4 -13 -9 -13 -5 0 -6 -9 -3 -20 4 -12 2
-20 -5 -20 -7 0 -9 -7 -6 -16 4 -9 2 -22 -4 -29 -7 -9 -7 -15 -1 -19 5 -4 12
-2 15 3 4 5 18 6 32 2 33 -9 105 -1 98 10 -3 5 -2 9 3 9 10 0 9 58 -2 68 -5 4
-5 1 0 -7 5 -9 4 -12 -3 -7 -12 7 -28 72 -23 96 2 8 0 12 -5 8 -4 -4 -18 4
-31 18 -14 15 -24 20 -23 13z m30 -49 c0 -10 9 -42 20 -70 11 -28 20 -55 20
-60 0 -6 -23 -10 -51 -10 -44 0 -51 2 -46 18 2 9 13 45 22 80 18 60 35 82 35
42z"/>
<path d="M3132 2340 c0 -14 2 -19 5 -12 2 6 2 18 0 25 -3 6 -5 1 -5 -13z"/>
<path d="M2450 2321 c0 -6 4 -13 10 -16 6 -3 7 1 4 9 -7 18 -14 21 -14 7z"/>
<path d="M2980 2280 c0 -5 5 -10 11 -10 5 0 7 5 4 10 -3 6 -8 10 -11 10 -2 0
-4 -4 -4 -10z"/>
<path d="M3055 2270 c-3 -5 -1 -10 4 -10 6 0 11 5 11 10 0 6 -2 10 -4 10 -3 0
-8 -4 -11 -10z"/>
<path d="M2550 2219 c0 -5 -4 -8 -9 -5 -4 3 -6 -7 -3 -22 5 -22 7 -24 10 -7 2
11 9 26 14 33 7 8 7 12 -1 12 -6 0 -11 -5 -11 -11z"/>
<path d="M3061 2204 c0 -11 3 -14 6 -6 3 7 2 16 -1 19 -3 4 -6 -2 -5 -13z"/>
<path d="M2547 2109 c4 -13 8 -18 11 -10 2 7 -1 18 -6 23 -8 8 -9 4 -5 -13z"/>
<path d="M2578 2103 c6 -2 18 -2 25 0 6 3 1 5 -13 5 -14 0 -19 -2 -12 -5z"/>
<path d="M2469 2088 c8 -11 9 -18 1 -23 -5 -3 -10 -1 -10 5 0 6 -5 8 -11 4 -8
-5 -8 -8 0 -14 7 -3 9 -15 6 -26 -6 -18 -6 -18 6 1 7 11 17 23 23 27 7 5 4 13
-8 25 -16 14 -17 14 -7 1z"/>
<path d="M2740 2096 c0 -2 7 -7 16 -10 8 -3 12 -2 9 4 -6 10 -25 14 -25 6z"/>
<path d="M2496 2055 c-3 -8 -1 -15 4 -15 6 0 10 7 10 15 0 8 -2 15 -4 15 -2 0
-6 -7 -10 -15z"/>
<path d="M3020 2050 c0 -5 5 -10 11 -10 5 0 7 5 4 10 -3 6 -8 10 -11 10 -2 0
-4 -4 -4 -10z"/>
<path d="M2800 1956 c0 -2 11 -6 25 -8 13 -3 22 -1 19 3 -5 9 -44 13 -44 5z"/>
<path d="M2891 1944 c0 -11 3 -14 6 -6 3 7 2 16 -1 19 -3 4 -6 -2 -5 -13z"/>
<path d="M2967 1946 c-4 -10 -3 -15 3 -11 6 3 10 1 10 -6 0 -7 3 -10 6 -6 3 3
2 13 -4 22 -8 16 -9 16 -15 1z"/>
<path d="M2790 1930 c-8 -5 -12 -12 -9 -15 4 -3 12 1 19 10 14 17 11 19 -10 5z"/>
<path d="M2226 1912 c-2 -4 -1 -14 4 -22 7 -11 9 -9 7 8 -1 24 -3 26 -11 14z"/>
<path d="M2687 1903 c-4 -3 -7 -11 -7 -17 0 -6 5 -5 12 2 6 6 9 14 7 17 -3 3
-9 2 -12 -2z"/>
<path d="M3531 1874 c0 -11 3 -14 6 -6 3 7 2 16 -1 19 -3 4 -6 -2 -5 -13z"/>
<path d="M2020 1628 c0 -137 0 -251 0 -255 0 -5 30 -9 66 -11 l66 -3 -4 156
c-1 85 0 155 3 155 3 0 11 -12 18 -27 7 -16 49 -85 93 -155 l80 -128 69 0 69
0 0 258 0 258 -67 0 -66 -1 1 -150 c2 -123 0 -147 -10 -132 -7 9 -51 77 -97
150 l-83 132 -69 0 -69 0 0 -247z m149 192 c13 -20 14 -23 1 -15 -12 7 -13 6
-3 -7 7 -8 10 -18 6 -22 -4 -4 1 -4 12 0 11 4 17 4 13 -1 -4 -4 -2 -13 5 -21
23 -25 32 -39 47 -69 8 -16 23 -39 33 -50 10 -10 15 -25 13 -32 -3 -7 0 -12 7
-10 7 1 11 -5 10 -13 -4 -20 32 -23 48 -4 6 7 9 23 6 34 -3 11 -2 18 1 16 4
-2 6 47 5 110 l-2 114 44 0 44 0 -1 -210 c-1 -143 -5 -210 -12 -210 -6 0 -4
-5 4 -11 12 -9 13 -12 1 -16 -11 -5 -11 -7 0 -14 11 -7 10 -9 -3 -9 -10 0 -18
5 -18 10 0 6 -8 10 -17 11 -15 0 -15 2 2 9 16 7 17 9 3 9 -24 1 -32 -16 -12
-27 12 -7 7 -9 -18 -10 -29 -1 -36 5 -60 44 -27 43 -40 87 -17 54 9 -13 10
-13 6 0 -2 9 -13 14 -28 12 -19 -3 -22 -1 -11 9 6 7 12 18 12 24 0 5 -4 4 -9
-3 -6 -10 -14 -5 -30 21 -11 19 -21 39 -21 44 0 6 -7 16 -15 23 -8 7 -15 16
-15 21 0 11 23 7 32 -6 5 -7 8 -6 8 1 0 5 -7 19 -15 30 -11 14 -14 15 -9 2 7
-20 -20 -19 -39 2 -10 10 -9 11 3 5 8 -4 5 2 -7 14 -13 12 -23 26 -23 31 0 6
-8 10 -17 10 -17 -1 -17 -1 0 -11 24 -14 21 -29 -5 -29 -17 0 -19 -3 -10 -12
14 -14 16 -62 2 -53 -5 3 -10 -1 -10 -10 0 -9 3 -14 8 -12 4 3 5 -35 2 -83 -3
-48 -2 -86 3 -83 4 2 7 0 7 -6 0 -5 -6 -12 -12 -14 -10 -4 -10 -7 0 -15 9 -6
-1 -9 -31 -8 l-45 1 -1 235 -2 235 57 -5 c46 -4 60 -10 73 -30z"/>
<path d="M2253 1573 c-1 -19 1 -22 8 -12 11 17 12 39 2 39 -5 0 -9 -12 -10
-27z"/>
<path d="M2363 1415 c-3 -9 -3 -18 -1 -21 3 -3 8 4 11 16 6 23 -1 27 -10 5z"/>
<path d="M3115 1870 c3 -5 8 -10 11 -10 2 0 4 5 4 10 0 6 -5 10 -11 10 -5 0
-7 -4 -4 -10z"/>
<path d="M3240 1872 c0 -3 65 -171 179 -462 l17 -45 61 -3 c51 -2 61 0 66 15
16 54 56 156 57 143 0 -8 12 -48 26 -87 l27 -73 57 0 58 0 41 103 c22 56 68
166 101 245 33 79 60 149 60 155 0 8 -24 13 -70 14 -39 1 -70 0 -70 -1 0 -1
-16 -47 -36 -102 -19 -54 -45 -127 -57 -161 -11 -35 -23 -63 -26 -63 -4 0 -16
30 -28 67 l-22 66 34 93 c19 52 33 94 32 95 -1 1 -34 2 -73 4 l-71 3 -42 -131
c-23 -73 -44 -147 -47 -164 -4 -18 -10 -33 -13 -33 -4 0 -32 73 -62 162 l-56
162 -71 1 c-40 1 -72 0 -72 -3z m459 -42 c7 -21 6 -32 -3 -39 -6 -5 -18 -37
-25 -69 -10 -48 -11 -64 -1 -83 7 -13 14 -30 15 -39 1 -8 7 -28 13 -43 14 -34
53 -35 58 -1 2 11 10 34 19 50 8 16 15 34 15 40 0 6 9 21 19 33 11 13 17 29
14 37 -5 14 23 83 40 95 4 3 5 14 2 25 -3 10 2 6 10 -11 l15 -30 -5 31 c-6 30
-5 31 30 29 20 -2 38 -5 41 -7 2 -3 -3 -22 -11 -42 -10 -24 -20 -34 -28 -30
-9 5 -9 4 0 -6 9 -10 7 -21 -9 -51 -11 -21 -21 -44 -22 -51 -1 -7 -11 -31 -21
-53 -10 -22 -19 -44 -20 -50 0 -5 -7 -21 -15 -35 -8 -14 -13 -31 -11 -39 1 -7
-2 -10 -8 -6 -7 4 -11 -5 -11 -25 0 -17 -3 -29 -7 -27 -5 3 -15 -2 -23 -11
-13 -14 -12 -15 3 -9 9 3 17 2 17 -3 0 -6 -5 -10 -11 -10 -5 0 -7 -4 -4 -10 4
-6 -11 -10 -38 -10 -43 0 -57 10 -61 45 -1 6 -5 20 -10 33 -5 15 -3 29 6 39 7
10 8 14 1 10 -6 -4 -13 -4 -16 0 -2 5 -2 2 -1 -4 2 -7 -1 -13 -6 -13 -6 0 -10
9 -10 19 0 11 -6 22 -12 24 -10 4 -9 8 2 16 8 5 11 13 8 17 -4 3 -17 -10 -29
-30 -19 -33 -30 -40 -51 -37 -4 0 -5 -6 -1 -15 5 -13 8 -13 15 -2 12 16 1 -21
-18 -69 -13 -29 -19 -33 -52 -33 -20 0 -44 5 -52 11 -12 8 -9 9 10 4 24 -6 24
-5 4 7 -12 7 -19 19 -16 27 3 8 0 11 -7 7 -7 -5 -11 5 -11 31 0 26 -3 34 -9
24 -7 -11 -12 -4 -20 25 -6 21 -11 47 -11 57 0 10 -4 16 -9 13 -5 -4 -13 8
-16 26 -4 18 -12 36 -18 40 -6 3 -11 22 -11 41 -1 19 -4 33 -8 30 -5 -2 -9 1
-9 6 -2 16 -4 23 -22 63 -24 53 -22 58 21 58 47 0 65 -11 56 -35 -5 -13 -4
-16 4 -11 8 5 12 0 12 -14 0 -12 7 -35 16 -52 9 -18 13 -41 10 -57 -5 -17 -4
-21 2 -12 12 17 21 3 24 -38 1 -17 6 -31 11 -31 5 0 4 -7 -3 -15 -7 -9 -10
-18 -6 -22 3 -3 6 -1 6 6 0 7 5 9 10 6 6 -3 8 -16 6 -28 -1 -12 -1 -16 1 -9 3
7 10 9 16 5 20 -13 37 -12 37 2 0 7 6 18 14 24 8 7 12 21 8 33 -4 17 -2 20 13
14 15 -5 16 -4 5 9 -10 12 -10 18 0 30 7 8 9 15 5 15 -4 0 -2 7 5 15 6 8 14
29 16 47 4 42 28 108 42 117 5 3 22 7 35 7 20 1 28 -5 36 -26z m21 9 c0 -6 -4
-7 -10 -4 -5 3 -10 11 -10 16 0 6 5 7 10 4 6 -3 10 -11 10 -16z"/>
<path d="M3321 1823 c-1 -17 16 -25 25 -12 4 7 3 9 -4 5 -5 -3 -13 0 -15 6 -4
9 -6 10 -6 1z"/>
<path d="M3375 1701 c-7 -22 -25 -29 -25 -9 0 6 -2 9 -5 6 -7 -7 5 -38 14 -38
10 0 33 51 27 57 -2 2 -7 -5 -11 -16z"/>
<path d="M3588 1687 c-3 -19 -2 -25 4 -19 6 6 8 18 6 28 -3 14 -5 12 -10 -9z"/>
<path d="M3851 1656 c-10 -11 -9 -14 1 -12 14 2 23 15 15 22 -2 2 -10 -2 -16
-10z"/>
<path d="M3576 1635 c4 -8 10 -15 15 -15 4 0 6 7 3 15 -4 8 -10 15 -15 15 -4
0 -6 -7 -3 -15z"/>
<path d="M3425 1529 c-4 -5 -4 -13 -1 -16 3 -4 7 0 7 8 1 8 5 1 9 -16 l8 -30
1 27 c1 29 -13 45 -24 27z"/>
<path d="M3485 1510 c-17 -8 -17 -9 7 -7 15 1 24 5 22 9 -3 4 -6 8 -7 7 -1 0
-11 -4 -22 -9z"/>
<path d="M3761 1454 c0 -11 3 -14 6 -6 3 7 2 16 -1 19 -3 4 -6 -2 -5 -13z"/>
<path d="M3515 1400 c-3 -5 -1 -10 4 -10 6 0 11 5 11 10 0 6 -2 10 -4 10 -3 0
-8 -4 -11 -10z"/>
<path d="M3728 1393 c7 -3 16 -2 19 1 4 3 -2 6 -13 5 -11 0 -14 -3 -6 -6z"/>
<path d="M2646 1831 c-4 -5 -2 -12 3 -15 5 -4 12 -2 15 3 4 5 2 12 -3 15 -5 4
-12 2 -15 -3z"/>
<path d="M3141 1784 c0 -11 3 -14 6 -6 3 7 2 16 -1 19 -3 4 -6 -2 -5 -13z"/>
<path d="M2995 1670 c3 -5 8 -10 11 -10 2 0 4 5 4 10 0 6 -5 10 -11 10 -5 0
-7 -4 -4 -10z"/>
<path d="M3726 1667 c3 -10 9 -15 12 -12 3 3 0 11 -7 18 -10 9 -11 8 -5 -6z"/>
<path d="M2785 1656 c11 -8 23 -12 27 -10 12 8 9 -11 -4 -24 -6 -6 -9 -14 -7
-17 3 -2 13 9 22 25 17 28 17 29 -3 25 -11 -2 -22 0 -25 6 -4 5 -11 9 -18 9
-6 0 -2 -6 8 -14z"/>
<path d="M2960 1620 c-12 -7 -10 -9 7 -7 12 0 19 5 17 9 -6 10 -6 10 -24 -2z"/>
<path d="M2836 1563 c-6 -14 -5 -15 5 -6 7 7 10 15 7 18 -3 3 -9 -2 -12 -12z"/>
<path d="M2905 1570 c3 -5 8 -10 11 -10 2 0 4 5 4 10 0 6 -5 10 -11 10 -5 0
-7 -4 -4 -10z"/>
<path d="M2867 1519 c7 -7 15 -10 18 -7 3 3 -2 9 -12 12 -14 6 -15 5 -6 -5z"/>
<path d="M3180 1490 c6 -11 13 -20 16 -20 2 0 0 9 -6 20 -6 11 -13 20 -16 20
-2 0 0 -9 6 -20z"/>
<path d="M3165 1450 c-3 -5 -1 -10 4 -10 6 0 11 5 11 10 0 6 -2 10 -4 10 -3 0
-8 -4 -11 -10z"/>
<path d="M2800 1446 c0 -2 7 -7 16 -10 8 -3 12 -2 9 4 -6 10 -25 14 -25 6z"/>
<path d="M2550 1360 c-9 -6 -10 -10 -3 -10 6 0 15 5 18 10 8 12 4 12 -15 0z"/>
<path d="M2700 1345 c0 -10 29 -24 34 -17 3 6 -3 12 -14 15 -11 3 -20 4 -20 2z"/>
<path d="M3060 1340 c-9 -6 -10 -10 -3 -10 6 0 15 5 18 10 8 12 4 12 -15 0z"/>
<path d="M2630 1289 c0 -5 5 -7 10 -4 6 3 10 8 10 11 0 2 -4 4 -10 4 -5 0 -10
-5 -10 -11z"/>
<path d="M2958 1213 c7 -3 16 -2 19 1 4 3 -2 6 -13 5 -11 0 -14 -3 -6 -6z"/>
</g>
</svg>
